Coordinates
version=1
nRows=11
nColumns=40
inDegrees=yes

Units are S.I. units (second, meters, Newtons, ...)
Angles are in degrees.

endheader
time	pelvis_tilt	pelvis_list	pelvis_rotation	pelvis_tx	pelvis_ty	pelvis_tz	hip_flexion_r	hip_adduction_r	hip_rotation_r	knee_angle_r	knee_angle_r_beta	ankle_angle_r	subtalar_angle_r	mtp_angle_r	hip_flexion_l	hip_adduction_l	hip_rotation_l	knee_angle_l	knee_angle_l_beta	ankle_angle_l	subtalar_angle_l	mtp_angle_l	lumbar_extension	lumbar_bending	lumbar_rotation	arm_flex_r	arm_add_r	arm_rot_r	elbow_flex_r	pro_sup_r	wrist_flex_r	wrist_dev_r	arm_flex_l	arm_add_l	arm_rot_l	elbow_flex_l	pro_sup_l	wrist_flex_l	wrist_dev_l
     40.38250000	     -4.23620584	     -4.30547235	     -2.47355312	      1.08713210	      0.93352544	      0.42884720	     34.71126682	     -3.36165750	     -4.30590186	     60.57350261	     60.57350261	      1.90078594	    -16.81671383	      4.17099447	      9.15912019	     -4.61487625	     -8.33495359	     19.62261412	     19.62261412	     16.18334447	    -12.54732066	      3.67759892	     -9.40306834	      7.62323946	      3.78422826	      8.70323709	    -12.57779141	    -12.19977764	     36.22541310	     46.57054419	      0.00000000	      0.00000000	     16.23724217	    -15.01928561	      3.21795274	     51.48868386	     46.35473388	      0.00000000	      0.00000000
     40.39385714	     -4.15709684	     -4.45862383	     -2.74624724	      1.08635459	      0.93374144	      0.42955764	     35.27083987	     -2.95783304	     -4.43959873	     57.85941665	     57.85941665	      1.93524620	    -16.22934167	      4.15975977	      8.10570281	     -4.76547235	     -8.62166284	     19.01509324	     19.01509324	     16.45646990	    -12.32603078	      3.58994457	     -9.65945250	      7.79289025	      4.12334795	      6.87577456	    -12.62502077	    -12.04596517	     33.94576258	     46.63089904	      0.00000000	      0.00000000	     17.86166056	    -15.36591824	      2.63984700	     53.55801776	     46.44723352	      0.00000000	      0.00000000
     40.40521429	     -4.09401368	     -4.56784513	     -2.99773541	      1.08566977	      0.93373195	      0.43033591	     35.66876242	     -2.59052415	     -4.53023207	     54.85769679	     54.85769679	      2.03967629	    -15.42621314	      3.78782332	      7.06845346	     -4.86791037	     -8.91921371	     18.41070611	     18.41070611	     16.73049818	    -12.06056807	      3.43115766	     -9.87346934	      7.88946531	      4.31840790	      5.26233563	    -12.57235566	    -11.94340274	     31.30262501	     46.71128471	      0.00000000	      0.00000000	     19.27273958	    -15.80318408	      1.97764317	     56.08854980	     46.55145126	      0.00000000	      0.00000000
     40.41657143	     -4.15821972	     -4.71968934	     -3.12463097	      1.08503084	      0.93348841	      0.43105053	     35.90324717	     -2.29006576	     -4.87964566	     51.35318959	     51.35318959	      1.48338450	    -14.60549337	      1.70848324	      6.21620643	     -5.02733727	     -9.17605413	     17.84971557	     17.84971557	     16.88576913	    -11.78124141	      2.99749196	     -9.90834841	      8.07494410	      3.22535486	      5.18473628	    -12.11056354	    -12.21581138	     26.74309393	     46.89919299	      0.00000000	      0.00000000	     19.15714077	    -16.96781432	      0.44587802	     60.32923614	     46.75431738	      0.00000000	      0.00000000
     40.42792857	     -4.12871198	     -4.80435801	     -3.27661353	      1.08455764	      0.93324373	      0.43181142	     35.92638055	     -2.03188082	     -5.13137124	     47.76827892	     47.76827892	      1.72070257	    -13.07139499	      1.50015474	      5.22970760	     -5.08848605	     -9.40487356	     17.26503618	     17.26503618	     17.14594707	    -11.52554263	      2.94043773	    -10.06828587	      8.18558667	      3.52197554	      3.09588200	    -12.15791206	    -12.34670028	     25.38221835	     46.94714918	      0.00000000	      0.00000000	     20.73613440	    -17.10185651	     -0.21347459	     62.14319828	     46.84836132	      0.00000000	      0.00000000
     40.43928571	     -4.13737103	     -4.85650375	     -3.38710998	      1.08419090	      0.93273609	      0.43258820	     35.80326727	     -1.82385443	     -5.42581376	     43.97307995	     43.97307995	      1.89391930	    -11.25705871	      1.04047821	      4.30312242	     -5.13003636	     -9.66658841	     16.71698444	     16.71698444	     17.42353255	    -11.16124012	      2.77220941	    -10.17384732	      8.24869618	      3.68369720	      1.08912854	    -12.12073571	    -12.63571640	     24.05535963	     47.01015280	      0.00000000	      0.00000000	     22.04368781	    -17.31591039	     -0.89100334	     64.49667124	     46.95040578	      0.00000000	      0.00000000
     40.45064286	     -4.18301433	     -4.96039013	     -3.42313963	      1.08397376	      0.93208585	      0.43339746	     35.47670020	     -1.56167783	     -5.82857559	     39.93535634	     39.93535634	      2.09874454	     -9.30951736	      0.94164526	      3.46104534	     -5.23613057	     -9.84752945	     16.25305658	     16.25305658	     17.68573556	    -10.84471349	      2.59912729	    -10.18529108	      8.44028329	      3.64078934	     -0.86739990	    -12.08341567	    -12.88560069	     23.06181277	     47.05780178	      0.00000000	      0.00000000	     23.24377892	    -17.64553478	     -1.43861766	     66.42817797	     47.03197893	      0.00000000	      0.00000000
     40.46200000	     -4.19484638	     -4.92415504	     -3.46795906	      1.08402730	      0.93118311	      0.43428761	     34.96546731	     -1.45835139	     -6.29901814	     35.84520893	     35.84520893	      1.97589595	     -7.13335881	     -0.17263509	      2.51993849	     -5.21313627	    -10.24205996	     15.70635749	     15.70635749	     17.91275530	    -10.22760146	      2.04175396	    -10.26767574	      8.36826132	      3.33059186	     -2.61598689	    -11.86815012	    -14.16256526	     22.14320582	     47.20451677	      0.00000000	      0.00000000	     23.56306610	    -18.13136872	     -2.64025476	     70.53667820	     47.20692924	      0.00000000	      0.00000000
     40.47335714	     -4.19143800	     -4.98432299	     -3.44485448	      1.08420909	      0.93023275	      0.43531847	     34.26119130	     -1.19001203	     -6.79003037	     31.75663982	     31.75663982	      2.10638227	     -5.13946803	      0.28204262	      1.62304260	     -5.28431945	    -10.34355483	     15.27819099	     15.27819099	     18.20861273	     -9.92929088	      1.83803911	    -10.26052772	      8.41134055	      3.26192174	     -4.55918204	    -11.83830747	    -14.42040275	     21.36286931	     47.24537308	      0.00000000	      0.00000000	     24.80278558	    -18.31204512	     -3.07802418	     72.03478319	     47.27369420	      0.00000000	      0.00000000
     40.48471429	     -4.17150835	     -4.92677428	     -3.37162424	      1.08472398	      0.92905110	      0.43627784	     33.43647599	     -1.07265611	     -7.38875195	     27.86270739	     27.86270739	      2.31619740	     -3.03745782	      0.89402163	      0.66468793	     -5.23314333	    -10.57411764	     14.78835387	     14.78835387	     18.47062184	     -9.46489285	      1.57511052	    -10.21002667	      8.40206491	      3.35813503	     -6.54341877	    -11.72006653	    -14.72934154	     20.75318337	     47.28314921	      0.00000000	      0.00000000	     25.96835903	    -18.37098491	     -3.49649729	     73.94056361	     47.34665513	      0.00000000	      0.00000000
     40.49607143	     -4.08510024	     -4.79894144	     -3.30333744	      1.08548064	      0.92771654	      0.43739250	     32.54268956	     -1.02655715	     -8.14742399	     24.38756193	     24.38756193	      2.48918234	     -1.05025463	      1.75627136	     -0.37082628	     -5.12504879	    -10.82880776	     14.32032431	     14.32032431	     18.76102041	     -8.86905877	      1.20845947	    -10.24282128	      8.26606594	      3.43934842	     -8.58300919	    -11.59192171	    -15.12561974	     20.36657787	     47.31873964	      0.00000000	      0.00000000	     26.97744663	    -18.41390685	     -3.90916007	     76.06812895	     47.42349634	      0.00000000	      0.00000000
